<svg xmlns="http://www.w3.org/2000/svg" xmlns:xlink="http://www.w3.org/1999/xlink" width="220.559" height="26.573" viewBox="0 0 220.559 26.573">
  <defs>
    <linearGradient id="linear-gradient" x1="0.092" y1="2.449" x2="1.024" y2="2.88" gradientUnits="objectBoundingBox">
      <stop offset="0" stop-color="#53e57a" stop-opacity="0"/>
      <stop offset="1" stop-color="#00a977"/>
    </linearGradient>
  </defs>
  <g id="Group_2432" data-name="Group 2432" transform="translate(-448.672 -1562.45)">
    <path id="Path_3023" data-name="Path 3023" d="M145.517,254.7l-9.348-16.208a5.2,5.2,0,0,0-9.014.152L117.32,255.52a4.646,4.646,0,0,0,4.1,6.981h19.668A5.193,5.193,0,0,0,145.517,254.7Z" transform="translate(345.732 1326.492)" fill="#00b897"/>
    <path id="Path_3024" data-name="Path 3024" d="M100.492,255.967l-.577-1c-.546-.941-1.73-2.944-1.73-2.944l-7.922-13.749a5.184,5.184,0,0,0-7.193-1.457,4.892,4.892,0,0,0-1.76,2l-9.2,15.935a5.184,5.184,0,0,0,4.492,7.74h32.871C104.407,262.523,102.8,259.882,100.492,255.967Z" transform="translate(377.25 1326.5)" fill="#76fcb2"/>
    <path id="Path_3025" data-name="Path 3025" d="M131.871,272.23l-.577-1c-.546-.941-1.73-2.944-1.73-2.944l-5.1-8.984-7.345,12.5a4.646,4.646,0,0,0,4.1,6.981h19.638C135.756,278.755,134.178,276.145,131.871,272.23Z" transform="translate(345.871 1310.237)" fill="url(#linear-gradient)"/>
    <path id="Path_3026" data-name="Path 3026" d="M782.789,275.879a5.959,5.959,0,0,1-3.157-.789,2.641,2.641,0,0,1-1.244-2.4V257h2.094a1.412,1.412,0,0,1,1.4,1.4v13.81a1.871,1.871,0,0,0,.546,1.214,1.771,1.771,0,0,0,1.244.516h.395a.3.3,0,0,1,.3.3v1.7Z" transform="translate(-115.137 1311.839)" fill="#00b897"/>
    <path id="Path_3027" data-name="Path 3027" d="M628.5,288a7.767,7.767,0,0,1-5.251-1.73,4.768,4.768,0,0,1-1.427-1.943,8.565,8.565,0,0,1-.425-3.157,9.144,9.144,0,0,1,.425-3.157,5.012,5.012,0,0,1,1.4-1.882,8.833,8.833,0,0,1,10.5,0,4.785,4.785,0,0,1,1.4,1.882,8.707,8.707,0,0,1,.425,3.187,9.143,9.143,0,0,1-.425,3.157,4.768,4.768,0,0,1-1.427,1.943A7.58,7.58,0,0,1,628.5,288Zm0-11.594q-3.551,0-3.551,4.826c0,3.217,1.184,4.856,3.551,4.856s3.551-1.609,3.551-4.826S630.839,276.4,628.5,276.4Z" transform="translate(-5.801 1299.72)" fill="#00b897"/>
    <path id="Path_3028" data-name="Path 3028" d="M680.11,275.879a8.916,8.916,0,0,1-5.069-1.487,4.584,4.584,0,0,0-.789-.546.31.31,0,0,1-.152-.243V257h2.125a1.412,1.412,0,0,1,1.4,1.4v4.856l.637-.364a6.647,6.647,0,0,1,3.065-.577,6.451,6.451,0,0,1,5.129,2,7.064,7.064,0,0,1,1.518,4.7,6.348,6.348,0,0,1-1.73,4.674C684.936,275.181,682.841,275.879,680.11,275.879Zm.334-11.594a5.378,5.378,0,0,0-2.7.911l-.152.061v7.8l.152.121a4.981,4.981,0,0,0,2.7.759,3.345,3.345,0,0,0,2.974-1.609,5.845,5.845,0,0,0,.911-3.248C684.329,265.893,683.023,264.284,680.444,264.284Z" transform="translate(-42.506 1311.839)" fill="#00b897"/>
    <path id="Path_3029" data-name="Path 3029" d="M732.435,287.963c-3.946,0-6.435-2.58-6.435-6.8s2.428-6.768,6.374-6.768a6.474,6.474,0,0,1,3.855,1.153l.212.152v-1.032H739.2a.272.272,0,0,1,.273.273h0v12.778h-3.1v-1.153l-.212.182A5.52,5.52,0,0,1,732.435,287.963Zm.7-11.26c-2.489,0-3.946,1.912-3.946,4.462s1.487,4.522,3.946,4.522a4.361,4.361,0,0,0,3.248-1.153l.03-.03v-6.556l-.03-.03a4.066,4.066,0,0,0-3.248-1.214Z" transform="translate(-78.653 1299.724)" fill="#00b897"/>
    <path id="Path_3030" data-name="Path 3030" d="M326.3,275.727V257h15.57v1.184a1.7,1.7,0,0,1-1.7,1.7H330.155v5.008h10.016v2.883H330.155v5.038h10.016a1.7,1.7,0,0,1,1.7,1.7h0V275.7Z" transform="translate(199.731 1311.839)" fill="#fff"/>
    <path id="Path_3031" data-name="Path 3031" d="M406.138,256.9h-3.673a2.249,2.249,0,0,0-1.73.82l-4.4,5.585L391.9,257.75a2.249,2.249,0,0,0-1.73-.82H386.5l7.436,9.348-7.436,9.348h3.673a2.249,2.249,0,0,0,1.73-.82l4.431-5.524,4.462,5.585a2.249,2.249,0,0,0,1.73.819H406.2l-7.467-9.348Z" transform="translate(157.803 1311.909)" fill="#fff"/>
    <path id="Path_3032" data-name="Path 3032" d="M259.285,273.581l5.1-8.923v10.866h3.885V256.8h-2.4a2.056,2.056,0,0,0-1.821,1.062L257.95,269l-6.1-11.139a2,2,0,0,0-1.821-1.062H247.6v18.727h3.885V264.658l5.1,8.923Z" transform="translate(254.545 1311.982)" fill="#fff"/>
    <path id="Path_3033" data-name="Path 3033" d="M462.1,275.382a9.581,9.581,0,0,1-9.8-9.409v-.152a8.874,8.874,0,0,1,9.621-9.621,9.958,9.958,0,0,1,8.043,3.49l-1.214,1.032a2.187,2.187,0,0,1-2.7.061,6.239,6.239,0,0,0-3.976-1.214c-3.824,0-6.07,2.307-6.07,6.192s2.337,6.343,6.07,6.343a6.622,6.622,0,0,0,3.976-1.214,2.188,2.188,0,0,1,2.7.061l1.214,1.032A9.786,9.786,0,0,1,462.1,275.382Z" transform="translate(111.975 1312.396)" fill="#fff"/>
    <path id="Path_3034" data-name="Path 3034" d="M540.973,275.422c-6.04,0-9.773-3.673-9.773-9.561s3.733-9.561,9.713-9.561a10.278,10.278,0,0,1,7.163,2.519l-.911,1a2.081,2.081,0,0,1-2.489.455,8.562,8.562,0,0,0-3.764-.88c-3.885,0-6.283,2.489-6.283,6.465s2.519,6.5,6.556,6.5a7.661,7.661,0,0,0,4.553-1.153l.061-.03v-3.855h-4.28v-1.244a1.7,1.7,0,0,1,1.7-1.7H548.5a.3.3,0,0,1,.3.3v8.316C546.953,274.6,544.312,275.422,540.973,275.422Z" transform="translate(57.022 1312.327)" fill="#00b897"/>
    <path id="Path_3035" data-name="Path 3035" d="M601.828,275.879a5.959,5.959,0,0,1-3.157-.789,2.73,2.73,0,0,1-1.275-2.4V257h2.094a1.392,1.392,0,0,1,1.4,1.4v13.81a1.87,1.87,0,0,0,.546,1.214,1.771,1.771,0,0,0,1.244.516h.395a.3.3,0,0,1,.3.3v1.7Z" transform="translate(10.918 1311.839)" fill="#00b897"/>
  </g>
</svg>
