<svg width="267" height="53" viewBox="0 0 267 53" fill="none" xmlns="http://www.w3.org/2000/svg">
<path d="M0.0999756 21.4915C0.0999756 19.8127 0.422806 18.1986 0.81021 16.5198C1.19761 14.8411 1.90786 13.2269 2.68267 11.6773C3.58661 9.93397 4.81339 8.31977 6.23387 6.89929C8.04175 5.09141 10.1725 3.67094 12.4969 2.5733C13.9174 1.92762 15.4024 1.47564 16.952 1.08824C19.0827 0.571701 21.2135 0.700835 23.4088 0.765402C25.7332 0.82997 27.8639 1.41109 29.9946 2.31503C32.9001 3.54181 35.4183 5.28512 37.4844 7.67411C38.7112 8.96545 39.6797 10.4505 40.5191 12.0001C41.423 13.7434 42.0687 15.6159 42.4561 17.5529C42.8435 19.619 42.9726 21.6206 42.7144 23.6868C42.4561 25.6884 42.1333 27.6254 41.2293 29.4333C40.5191 30.7892 39.8734 32.2097 38.9695 33.501C38.1947 34.6632 37.1616 35.6317 36.1285 36.6648C34.3206 38.4727 32.1253 39.764 29.7363 40.7326C28.7678 41.12 27.7348 41.3782 26.7662 41.7011C24.571 42.3467 22.3757 42.4759 20.1158 42.3467C18.2434 42.2176 16.4355 41.9593 14.6922 41.3137C12.174 40.4097 9.78506 39.1829 7.71891 37.375C6.23386 36.0837 4.81338 34.6632 3.71574 32.9845C2.81179 31.564 2.03699 30.0144 1.45588 28.3356C0.939344 27.0443 0.681077 25.6238 0.358241 24.3325C0.0999716 23.3639 0.164543 22.3954 0.0999756 21.4915ZM7.26694 22.1372C7.26694 23.5576 7.58977 24.9781 8.10631 26.334C8.68742 27.8191 9.39766 29.175 10.3662 30.3372C13.2717 33.7593 16.952 35.5026 21.4072 35.5672C22.8277 35.5672 24.2481 35.3735 25.604 34.9861C26.3789 34.7278 27.0891 34.5341 27.7993 34.1467C29.1552 33.501 30.2529 32.6616 31.3505 31.6286C33.223 29.9498 34.3852 27.8837 35.0954 25.5592C35.2246 25.1073 35.4183 24.6553 35.4828 24.2033C35.7411 21.9435 35.8702 19.6836 35.0954 17.4883C34.708 16.3907 34.2561 15.3576 33.7395 14.3245C32.9001 12.7749 31.6734 11.6127 30.3174 10.5151C28.897 9.41742 27.3474 8.44892 25.604 8.06151C23.6025 7.60954 21.6654 7.093 19.5993 7.60954C19.5347 7.60954 19.5347 7.60954 19.4702 7.60954C17.5977 7.73867 15.8544 8.38435 14.2402 9.35286C12.4969 10.3859 10.9473 11.8064 9.72049 13.4852C8.75199 14.7765 8.17088 16.197 7.65434 17.682C7.20237 19.1671 7.20237 20.6521 7.26694 22.1372Z" fill="url(#paint0_linear_1_37)"/>
<path d="M120.905 27.3025C120.905 22.7828 120.905 18.1986 120.905 13.6788C120.905 13.1623 121.034 12.9686 121.616 12.9686C123.488 12.9686 125.36 12.9686 127.233 12.9686C127.814 12.9686 127.943 13.0977 127.943 13.7434C127.943 14.0663 127.943 14.4537 128.008 14.7765C128.008 15.0993 128.201 15.1639 128.524 15.0348C128.718 14.9056 128.912 14.7765 129.105 14.6474C130.203 14.0017 131.301 13.2269 132.463 12.7103C134.012 12.0001 135.691 12.0001 137.37 12.3229C139.372 12.7104 140.857 13.808 142.083 15.293C142.664 15.9387 142.794 16.0033 143.439 15.3576C144.86 14.0663 146.539 13.2269 148.346 12.6458C150.865 11.9355 153.447 11.7418 155.901 12.7103C158.29 13.6143 159.904 15.3576 160.808 17.7466C161.647 19.8773 161.97 22.0726 161.97 24.2679C161.97 29.0459 161.97 33.8238 161.906 38.6018C161.906 39.3121 161.906 40.0223 161.906 40.7971C161.906 41.4428 161.776 41.5073 161.131 41.5073C159.323 41.5073 157.515 41.5073 155.707 41.5073C155.126 41.5073 154.932 41.3782 154.932 40.7971C154.932 38.5372 154.932 36.2128 154.868 33.953C154.868 30.5309 154.868 27.1088 154.868 23.6868C154.868 22.2017 154.222 21.1041 153.124 20.071C151.768 18.9088 150.283 18.7797 148.669 19.0379C148.282 19.1025 147.83 19.2962 147.507 19.4899C146.28 20.3938 145.118 21.3624 145.053 23.0411C144.989 24.849 144.989 26.6569 144.924 28.4648C144.924 32.2097 144.924 35.9546 144.924 39.764C144.924 40.1514 144.924 40.5388 144.86 40.9908C144.86 41.3782 144.602 41.4428 144.279 41.4428C143.568 41.4428 142.923 41.4428 142.213 41.4428C141.115 41.4428 139.953 41.4428 138.855 41.4428C138.08 41.4428 137.951 41.3136 137.951 40.5388C137.951 34.9215 137.887 29.3687 137.887 23.7513C137.887 22.3309 137.305 21.2978 136.401 20.3293C135.046 18.8442 133.302 18.7151 131.494 19.0379C130.59 19.2316 129.816 19.8773 129.17 20.523C128.137 21.6206 127.814 22.8474 127.814 24.3324C127.879 27.6899 127.814 31.112 127.749 34.4695C127.749 36.4711 127.749 38.4081 127.749 40.4097C127.749 41.3782 127.685 41.4428 126.716 41.4428C125.038 41.4428 123.294 41.4428 121.616 41.4428C121.034 41.4428 120.905 41.3137 120.905 40.7325C120.905 36.2128 120.905 31.6286 120.905 27.1088C120.97 27.3026 120.97 27.3025 120.905 27.3025Z" fill="url(#paint1_linear_1_37)"/>
<path d="M49.1711 32.9845C49.1711 27.9482 49.1711 22.912 49.1711 17.9403C49.1711 16.5198 49.1711 15.0348 49.1711 13.6143C49.1711 13.1623 49.3648 12.9686 49.8168 12.9686C50.9144 12.9686 51.9475 12.9041 53.0451 12.9041C53.8845 12.9041 54.7239 12.9041 55.5633 12.9041C56.2089 12.9041 56.2735 13.0332 56.2735 13.6143C56.2735 13.9371 56.2735 14.1954 56.2735 14.5182C56.3381 14.9056 56.4672 14.9702 56.79 14.7765C58.146 13.8726 59.5664 13.1623 61.0515 12.7103C62.6011 12.2584 64.2153 12.0647 65.8295 12.1292C68.283 12.2584 70.5429 12.8395 72.7382 14.0017C73.8358 14.5828 74.8689 15.3576 75.7083 16.3261C76.2248 16.9718 76.8705 17.4883 77.3224 18.1986C78.1618 19.3608 78.8075 20.6521 79.2595 22.0081C79.9051 24.0096 80.3571 26.0112 80.1634 28.1419C79.9051 31.3057 78.9366 34.2758 76.935 36.8585C75.9665 38.1499 74.7397 39.1184 73.3838 40.0223C72.2862 40.7971 71.0594 41.3137 69.7681 41.7011C67.5082 42.2822 65.2483 42.5404 62.9239 42.153C61.7617 41.9593 60.6641 41.7011 59.5664 41.3137C59.1145 41.12 59.0499 40.8617 59.2436 40.4743C59.5019 39.9577 59.8247 39.4412 60.0184 38.8601C60.4058 37.8916 60.7286 36.9231 61.1161 35.9546C61.4389 35.1152 61.6326 35.1798 62.472 35.3089C63.505 35.5026 64.6027 35.5672 65.6358 35.5026C67.0562 35.438 68.4122 34.9215 69.5744 34.0175C72.8027 31.6286 73.9649 27.9482 72.4799 24.2033C71.576 21.8789 69.8326 20.4584 67.5082 19.5545C65.9586 18.9088 64.409 18.9734 62.7948 19.2316C61.6326 19.4253 60.535 20.0065 59.5664 20.6521C57.7586 21.9435 56.6609 23.7514 56.2735 25.8821C56.1444 26.4632 56.1444 27.0443 56.1444 27.6254C56.1444 32.3388 56.1444 37.1168 56.1444 41.8302C56.1444 45.2523 56.1444 48.6743 56.1444 52.0964C56.1444 52.9358 56.0798 53.0003 55.2404 53.0003C53.4971 53.0003 51.7538 53.0003 49.9459 53.0003C49.2357 53.0003 49.1065 52.8712 49.1065 52.161C49.1065 48.6098 49.1065 45.0586 49.1065 41.5074C49.2357 38.731 49.2357 35.89 49.1711 32.9845C49.1711 32.9845 49.2357 32.9845 49.1711 32.9845Z" fill="url(#paint2_linear_1_37)"/>
<path d="M230.799 39.8932C230.476 40.0223 230.282 40.1514 230.153 40.216C228.216 41.5073 226.085 42.3467 223.696 42.5404C222.341 42.6696 220.985 42.4759 219.629 42.153C218.531 41.8947 217.563 41.5074 216.594 40.9908C214.786 39.9577 213.43 38.6018 212.268 36.8585C210.718 34.5341 210.073 31.9514 210.073 29.175C210.073 24.1387 210.073 19.0379 210.073 14.0017C210.073 12.8395 210.073 12.8395 211.235 12.8395C212.914 12.8395 214.592 12.8395 216.336 12.8395C217.111 12.8395 217.24 13.0332 217.24 13.808C217.24 16.7781 217.24 19.7482 217.24 22.7183C217.24 24.849 217.175 26.9152 217.304 29.0459C217.369 30.7246 217.95 32.2742 219.177 33.501C219.952 34.2758 220.791 34.9215 221.824 35.2443C222.857 35.5672 223.955 35.6963 225.052 35.5672C227.248 35.2443 228.926 34.0821 230.089 32.2742C230.799 31.112 230.993 29.8207 230.993 28.4648C230.928 24.1388 230.928 19.8128 230.928 15.5513C230.928 14.9702 230.928 14.3891 230.928 13.8726C230.928 13.2269 231.057 13.0332 231.703 13.0332C233.381 13.0332 234.996 12.9686 236.674 13.0332C238.095 13.0332 238.095 13.0978 238.095 14.5182C238.095 18.586 238.095 22.6537 238.03 26.6569C238.03 31.4349 237.966 36.2774 237.966 41.0554C237.966 41.7011 237.772 41.8302 237.191 41.8302C236.093 41.8302 234.931 41.8302 233.833 41.8302C233.123 41.8302 232.348 41.8302 231.638 41.7656C231.186 41.7656 230.993 41.5719 230.993 41.1199C230.928 40.7325 230.863 40.3451 230.799 39.8932Z" fill="url(#paint3_linear_1_37)"/>
<path d="M254.366 12.0647C256.69 11.9355 258.886 12.4521 260.952 13.2915C262.501 13.9371 263.857 14.9056 265.019 16.0678C265.278 16.3261 265.278 16.5844 265.019 16.8427C263.664 18.1986 262.372 19.4899 261.016 20.7812C260.952 20.8458 260.887 20.9104 260.823 20.975C260.371 21.2978 260.112 21.2332 259.789 20.8458C259.144 20.071 258.369 19.4253 257.465 19.0379C255.722 18.3277 253.978 18.1986 252.3 19.1025C251.589 19.4899 251.331 20.071 251.267 20.8458C251.267 21.4915 251.654 21.9435 252.171 22.2017C253.397 22.9765 254.818 23.2994 256.238 23.6868C258.24 24.2679 260.241 24.9781 261.92 26.2049C263.341 27.238 264.632 28.4648 265.471 29.9498C265.794 30.5955 265.988 31.3703 266.053 32.0805C266.182 33.501 266.053 34.986 265.601 36.342C265.019 38.1498 263.793 39.4412 262.372 40.5388C260.823 41.7656 259.015 42.0239 257.142 42.2176C255.27 42.4113 253.397 42.2176 251.525 41.7656C249.846 41.3782 248.297 40.7325 246.876 39.6995C246.295 39.3121 245.714 38.9892 245.133 38.6018C244.422 38.0853 244.423 37.7625 245.004 37.1813C246.23 35.9546 247.457 34.7924 248.684 33.6301C249.071 33.2427 249.33 33.2427 249.782 33.6301C251.331 34.9861 253.139 35.6963 255.141 35.9546C256.045 36.0837 256.949 35.89 257.723 35.5026C258.95 34.8569 259.531 33.3719 257.982 32.2097C256.884 31.3703 255.528 31.1766 254.237 30.7246C252.816 30.2726 251.396 29.6915 249.975 29.175C248.619 28.6585 247.522 27.7545 246.424 26.786C245.326 25.7529 244.293 24.5907 244.035 22.9765C243.906 22.0726 243.906 21.1687 243.971 20.3293C244.1 18.3923 244.681 16.649 245.972 15.2285C247.134 13.9371 248.619 12.9686 250.298 12.4521C251.719 12.1292 253.075 11.9355 254.366 12.0647Z" fill="url(#paint4_linear_1_37)"/>
<path d="M192.833 12.0001C194.06 12.1293 195.351 12.1938 196.578 12.5166C197.611 12.7749 198.58 13.1623 199.548 13.6143C200.84 14.1308 201.937 14.9702 202.97 15.8742C203.422 16.2616 203.487 16.649 203.035 17.0364C201.744 18.3277 200.452 19.5545 199.161 20.8458C198.58 21.3624 198.451 21.3624 197.934 20.7812C196.836 19.5545 195.481 18.8442 193.931 18.6505C192.51 18.4568 191.155 18.6505 189.992 19.619C189.282 20.2002 189.217 21.4269 189.928 22.008C190.509 22.46 191.219 22.8474 191.929 23.1057C192.769 23.4285 193.673 23.6222 194.512 23.8805C197.288 24.7199 199.936 25.8175 202.002 27.9482C202.97 28.9813 203.81 30.0789 204.197 31.4994C204.326 31.8868 204.326 32.3388 204.326 32.7908C204.455 35.1152 203.874 37.2459 202.389 39.0538C201.033 40.7325 199.29 41.7656 197.095 42.153C195.093 42.5404 193.156 42.4759 191.155 42.2176C189.476 41.9593 187.926 41.4428 186.441 40.7325C185.343 40.1514 184.31 39.4412 183.277 38.731C182.696 38.3436 182.696 38.0853 183.213 37.5687C184.44 36.342 185.602 35.1798 186.828 33.953C187.28 33.501 187.539 33.5656 187.991 33.953C189.088 34.9215 190.251 35.6963 191.8 35.89C192.446 35.9546 193.092 36.0837 193.673 36.2128C194.447 36.342 195.158 36.0837 195.868 35.7609C197.03 35.3089 197.224 34.1467 196.966 33.1782C196.966 33.049 196.836 32.9199 196.772 32.8553C196.126 32.4034 195.61 31.8868 194.835 31.6286C192.769 30.9829 190.703 30.3372 188.636 29.627C187.732 29.3041 186.893 28.6585 186.054 28.1419C184.956 27.4317 184.052 26.4632 183.277 25.4301C182.309 24.1388 182.051 22.5891 182.18 21.0395C182.244 19.4254 182.696 17.8757 183.536 16.5198C184.375 15.1639 185.537 14.1308 187.022 13.356C188.895 12.3229 190.832 12.0647 192.833 12.0001Z" fill="url(#paint5_linear_1_37)"/>
<path d="M85.9099 20.4584C85.9099 16.3261 85.9099 12.1292 85.9099 7.99694C85.9099 7.22213 85.9744 7.15756 86.6847 6.96385C88.1697 6.57645 89.7193 6.25363 91.2044 5.86622C91.4627 5.80166 91.7209 5.67252 92.0438 5.54339C92.6249 5.34969 92.8186 5.47882 92.8186 6.12449C92.8186 9.28828 92.8186 12.4521 92.8186 15.6159C92.8186 16.3261 92.9477 16.4553 93.6579 16.4553C94.5619 16.4553 95.4658 16.4553 96.3052 16.4553C96.8217 16.4553 97.0154 16.7781 97.1446 17.1655C97.4674 18.3923 97.7902 19.619 98.0485 20.8458C98.1776 21.3624 98.3068 21.8789 98.4359 22.3309C98.5651 22.912 98.3713 23.1057 97.7902 23.1057C96.8863 23.1057 95.9824 23.1057 95.0784 23.1057C94.4973 23.1057 93.9162 23.1057 93.3997 23.1057C92.9477 23.1057 92.8186 23.2994 92.754 23.7513C92.754 26.5277 92.6894 29.3687 92.754 32.1451C92.754 33.6301 94.0453 34.7923 95.5304 34.7923C96.8217 34.7923 98.1131 34.7923 99.3399 34.7923C99.7918 34.7923 100.05 34.986 100.179 35.438C100.373 36.2774 100.631 37.1813 100.889 38.0207C101.148 38.9892 101.341 39.9577 101.6 40.9262C101.664 41.2491 101.535 41.3782 101.212 41.4428C100.825 41.4428 100.373 41.4428 99.9855 41.4428C98.1131 41.4428 96.3052 41.5074 94.4328 41.3782C93.0123 41.3136 91.7209 40.8617 90.4941 40.0869C89.2028 39.3121 88.1697 38.2144 87.2658 36.9876C86.4264 35.6963 85.9099 34.2758 85.8453 32.7262C85.9099 28.7876 85.9099 24.5907 85.9099 20.4584Z" fill="url(#paint6_linear_1_37)"/>
<path d="M168.75 27.3025C168.75 22.9765 168.75 18.6505 168.75 14.3245C168.75 14.1308 168.75 13.8726 168.75 13.6788C168.75 13.1623 168.943 12.9041 169.46 12.9041C171.332 12.9041 173.269 12.9041 175.142 12.9041C175.723 12.9041 175.852 13.0977 175.852 13.6788C175.852 14.3245 175.852 14.9702 175.852 15.5513C175.852 23.4931 175.788 31.4994 175.788 39.4412C175.788 39.8932 175.788 40.4097 175.788 40.8617C175.788 41.4428 175.658 41.6365 175.142 41.6365C174.044 41.6365 172.882 41.6365 171.784 41.7011C171.139 41.7011 170.428 41.7011 169.783 41.7011C169.073 41.7011 168.879 41.5719 168.879 40.8617C168.879 38.5373 168.814 36.2774 168.814 33.953C168.75 31.7577 168.75 29.4978 168.75 27.3025Z" fill="url(#paint7_linear_1_37)"/>
<path d="M114.19 27.3025C114.19 31.8223 114.19 36.342 114.19 40.8617C114.19 41.5719 114.126 41.6365 113.416 41.6365C111.608 41.6365 109.735 41.6365 107.927 41.6365C107.346 41.6365 107.282 41.5073 107.282 40.9262C107.282 38.0853 107.217 35.1798 107.217 32.3388C107.217 26.4632 107.217 20.5876 107.152 14.7119C107.152 14.3891 107.152 14.0663 107.152 13.6788C107.152 13.1623 107.282 12.9686 107.798 12.9041C108.25 12.9041 108.702 12.9041 109.154 12.9041C110.639 12.9041 112.124 12.9041 113.609 12.9041C114.061 12.9041 114.255 13.0332 114.255 13.4852C114.255 18.134 114.255 22.7183 114.19 27.3025Z" fill="url(#paint8_linear_1_37)"/>
<path d="M175.788 4.89772C175.788 5.73709 175.788 6.64103 175.788 7.48041C175.788 8.12608 175.594 8.38435 174.948 8.38435C173.14 8.38435 171.397 8.38435 169.589 8.38435C168.943 8.38435 168.814 8.2552 168.75 7.60953C168.75 5.80165 168.75 3.9292 168.75 2.12131C168.75 1.66934 169.008 1.47564 169.395 1.47564C171.268 1.47564 173.14 1.47564 175.013 1.47564C175.594 1.47564 175.723 1.66935 175.788 2.25046C175.788 2.70243 175.788 3.1544 175.788 3.60637C175.788 4.05834 175.788 4.51031 175.788 4.89772Z" fill="url(#paint9_linear_1_37)"/>
<path d="M114.19 4.89772C114.19 5.80166 114.19 6.77016 114.19 7.6741C114.19 8.19064 114.061 8.31978 113.545 8.31978C111.737 8.31978 109.864 8.31978 108.056 8.38435C107.411 8.38435 107.282 8.2552 107.217 7.60953C107.152 5.73708 107.217 3.86463 107.152 2.05674C107.152 1.66934 107.411 1.47564 107.734 1.47564C108.121 1.47564 108.508 1.47564 108.896 1.47564C110.445 1.47564 111.93 1.47564 113.48 1.47564C114.061 1.47564 114.126 1.54021 114.126 2.12131C114.126 3.08982 114.19 3.99378 114.19 4.89772Z" fill="url(#paint10_linear_1_37)"/>
<defs>
<linearGradient id="paint0_linear_1_37" x1="31.9902" y1="39.6747" x2="11.0078" y2="3.33202" gradientUnits="userSpaceOnUse">
<stop offset="0.6101" stop-color="#FFE884"/>
<stop offset="0.73" stop-color="#FFE884"/>
</linearGradient>
<linearGradient id="paint1_linear_1_37" x1="157.571" y1="45.648" x2="123.039" y2="11.1164" gradientUnits="userSpaceOnUse">
<stop offset="0.00740513" stop-color="#B89121"/>
<stop offset="0.6101" stop-color="#FFE884"/>
</linearGradient>
<linearGradient id="paint2_linear_1_37" x1="69.0999" y1="45.4608" x2="50.1468" y2="12.6332" gradientUnits="userSpaceOnUse">
<stop offset="0.6101" stop-color="#FFE884"/>
<stop offset="0.73" stop-color="#FFE884"/>
</linearGradient>
<linearGradient id="paint3_linear_1_37" x1="235.465" y1="42.934" x2="216.208" y2="9.58044" gradientUnits="userSpaceOnUse">
<stop offset="0.00740513" stop-color="#B89121"/>
<stop offset="0.6101" stop-color="#FFE884"/>
</linearGradient>
<linearGradient id="paint4_linear_1_37" x1="262.672" y1="40.6831" x2="247.304" y2="14.0643" gradientUnits="userSpaceOnUse">
<stop offset="0.3766" stop-color="#B89121"/>
<stop offset="1" stop-color="#FFE884"/>
</linearGradient>
<linearGradient id="paint5_linear_1_37" x1="200.794" y1="40.623" x2="185.48" y2="14.0985" gradientUnits="userSpaceOnUse">
<stop offset="0.00740513" stop-color="#B89121"/>
<stop offset="0.6101" stop-color="#FFE884"/>
</linearGradient>
<linearGradient id="paint6_linear_1_37" x1="101.576" y1="41.462" x2="82.8607" y2="9.04558" gradientUnits="userSpaceOnUse">
<stop offset="0.6101" stop-color="#FFE884"/>
<stop offset="0.73" stop-color="#FFE884"/>
</linearGradient>
<linearGradient id="paint7_linear_1_37" x1="179.335" y1="39.3894" x2="165.326" y2="15.126" gradientUnits="userSpaceOnUse">
<stop offset="0.00740513" stop-color="#B89121"/>
<stop offset="0.6101" stop-color="#FFE884"/>
</linearGradient>
<linearGradient id="paint8_linear_1_37" x1="117.729" y1="39.4226" x2="103.704" y2="15.1296" gradientUnits="userSpaceOnUse">
<stop offset="0.6101" stop-color="#FFE884"/>
<stop offset="0.73" stop-color="#FFE884"/>
</linearGradient>
<linearGradient id="paint9_linear_1_37" x1="174.561" y1="8.85059" x2="170.017" y2="0.981052" gradientUnits="userSpaceOnUse">
<stop offset="0.00740513" stop-color="#B89121"/>
<stop offset="0.6101" stop-color="#FFE884"/>
</linearGradient>
<linearGradient id="paint10_linear_1_37" x1="112.983" y1="8.84807" x2="108.437" y2="0.974476" gradientUnits="userSpaceOnUse">
<stop offset="0.6101" stop-color="#FFE884"/>
<stop offset="0.73" stop-color="#FFE884"/>
</linearGradient>
</defs>
</svg>
